{
  "accessors": [
    {
      "bufferView": 2,
      "componentType": 5126,
      "count": 1349,
      "max": [
        8.442808151245117,
        4.094804763793945,
        14.897210121154785
      ],
      "min": [
        -8.442808151245117,
        -4.094804763793945,
        0.07746219635009766
      ],
      "type": "VEC3"
    },
    {
      "bufferView": 2,
      "byteOffset": 16188,
      "componentType": 5126,
      "count": 1349,
      "max": [
        1.0,
        1.0,
        1.0
      ],
      "min": [
        -1.0,
        -1.0,
        -1.0
      ],
      "type": "VEC3"
    },
    {
      "bufferView": 3,
      "componentType": 5126,
      "count": 1349,
      "max": [
        1.0,
        0.9999982118606567,
        1.0,
        1.0
      ],
      "min": [
        -1.0,
        -1.0,
        -0.9996748566627502,
        -1.0
      ],
      "type": "VEC4"
    },
    {
      "bufferView": 2,
      "byteOffset": 32376,
      "componentType": 5126,
      "count": 1349,
      "max": [
        1.0,
        1.0,
        1.0
      ],
      "min": [
        1.0,
        1.0,
        1.0
      ],
      "type": "VEC3"
    },
    {
      "bufferView": 1,
      "componentType": 5126,
      "count": 1349,
      "max": [
        0.9890897870063782,
        0.992782473564148
      ],
      "min": [
        0.006042573135346174,
        0.017959890887141228
      ],
      "type": "VEC2"
    },
    {
      "bufferView": 0,
      "componentType": 5125,
      "count": 5715,
      "type": "SCALAR"
    },
    {
      "bufferView": 2,
      "byteOffset": 48564,
      "componentType": 5126,
      "count": 348,
      "max": [
        8.208846092224121,
        4.109476089477539,
        16.9451904296875
      ],
      "min": [
        -8.208846092224121,
        -4.109478950500488,
        1.0918049812316895
      ],
      "type": "VEC3"
    },
    {
      "bufferView": 2,
      "byteOffset": 52740,
      "componentType": 5126,
      "count": 348,
      "max": [
        1.0,
        1.0,
        1.0
      ],
      "min": [
        -1.0,
        -1.0,
        -1.0
      ],
      "type": "VEC3"
    },
    {
      "bufferView": 3,
      "byteOffset": 21584,
      "componentType": 5126,
      "count": 348,
      "max": [
        1.0,
        1.0,
        0.9846721291542053,
        1.0
      ],
      "min": [
        -1.0,
        -1.0,
        -0.9549551606178284,
        1.0
      ],
      "type": "VEC4"
    },
    {
      "bufferView": 2,
      "byteOffset": 56916,
      "componentType": 5126,
      "count": 348,
      "max": [
        0.9960784316062927,
        0.9960784316062927,
        0.9960784316062927
      ],
      "min": [
        0.0,
        0.0,
        0.0
      ],
      "type": "VEC3"
    },
    {
      "bufferView": 1,
      "byteOffset": 10792,
      "componentType": 5126,
      "count": 348,
      "max": [
        0.9849392771720886,
        0.9839475154876709
      ],
      "min": [
        0.012634470127522945,
        0.019943540915846825
      ],
      "type": "VEC2"
    },
    {
      "bufferView": 0,
      "byteOffset": 22860,
      "componentType": 5125,
      "count": 1416,
      "type": "SCALAR"
    },
    {
      "bufferView": 2,
      "byteOffset": 61092,
      "componentType": 5126,
      "count": 348,
      "max": [
        8.208846092224121,
        4.109476089477539,
        16.9451904296875
      ],
      "min": [
        -8.208846092224121,
        -4.109478950500488,
        1.0918049812316895
      ],
      "type": "VEC3"
    },
    {
      "bufferView": 2,
      "byteOffset": 65268,
      "componentType": 5126,
      "count": 348,
      "max": [
        1.0,
        1.0,
        1.0
      ],
      "min": [
        -1.0,
        -1.0,
        -1.0
      ],
      "type": "VEC3"
    },
    {
      "bufferView": 3,
      "byteOffset": 27152,
      "componentType": 5126,
      "count": 348,
      "max": [
        1.0,
        1.0,
        0.9846721291542053,
        1.0
      ],
      "min": [
        -1.0,
        -1.0,
        -0.9549551606178284,
        1.0
      ],
      "type": "VEC4"
    },
    {
      "bufferView": 2,
      "byteOffset": 69444,
      "componentType": 5126,
      "count": 348,
      "max": [
        0.9960784316062927,
        0.9960784316062927,
        0.9960784316062927
      ],
      "min": [
        0.0,
        0.0,
        0.0
      ],
      "type": "VEC3"
    },
    {
      "bufferView": 1,
      "byteOffset": 13576,
      "componentType": 5126,
      "count": 348,
      "max": [
        0.9849392771720886,
        0.9839475154876709
      ],
      "min": [
        0.012634470127522945,
        0.019943540915846825
      ],
      "type": "VEC2"
    },
    {
      "bufferView": 0,
      "byteOffset": 28524,
      "componentType": 5125,
      "count": 1416,
      "type": "SCALAR"
    },
    {
      "bufferView": 2,
      "byteOffset": 73620,
      "componentType": 5126,
      "count": 1349,
      "max": [
        8.442808151245117,
        4.094804763793945,
        14.897210121154785
      ],
      "min": [
        -8.442808151245117,
        -4.094804763793945,
        0.07746219635009766
      ],
      "type": "VEC3"
    },
    {
      "bufferView": 2,
      "byteOffset": 89808,
      "componentType": 5126,
      "count": 1349,
      "max": [
        1.0,
        1.0,
        1.0
      ],
      "min": [
        -1.0,
        -1.0,
        -1.0
      ],
      "type": "VEC3"
    },
    {
      "bufferView": 3,
      "byteOffset": 32720,
      "componentType": 5126,
      "count": 1349,
      "max": [
        1.0,
        0.9999982118606567,
        1.0,
        1.0
      ],
      "min": [
        -1.0,
        -1.0,
        -0.9996748566627502,
        -1.0
      ],
      "type": "VEC4"
    },
    {
      "bufferView": 2,
      "byteOffset": 105996,
      "componentType": 5126,
      "count": 1349,
      "max": [
        1.0,
        1.0,
        1.0
      ],
      "min": [
        1.0,
        1.0,
        1.0
      ],
      "type": "VEC3"
    },
    {
      "bufferView": 1,
      "byteOffset": 16360,
      "componentType": 5126,
      "count": 1349,
      "max": [
        0.9890897870063782,
        0.992782473564148
      ],
      "min": [
        0.006042573135346174,
        0.017959890887141228
      ],
      "type": "VEC2"
    },
    {
      "bufferView": 0,
      "byteOffset": 34188,
      "componentType": 5125,
      "count": 5715,
      "type": "SCALAR"
    }
  ],
  "asset": {
    "extras": {
      "author": "StinkySkunk12 (https://sketchfab.com/Bearfnf)",
      "license": "SKETCHFAB Standard (https://sketchfab.com/licenses)",
      "source": "https://sketchfab.com/3d-models/animal-crossing-new-horizons-zodiac-capricornus-5162c9579f904c33a1039ecdec21692f",
      "title": "Animal Crossing New Horizons Zodiac Capricornus"
    },
    "generator": "Sketchfab-16.99.0",
    "version": "2.0"
  },
  "bufferViews": [
    {
      "buffer": 0,
      "byteLength": 57048,
      "name": "floatBufferViews",
      "target": 34963
    },
    {
      "buffer": 0,
      "byteLength": 27152,
      "byteOffset": 57048,
      "byteStride": 8,
      "name": "floatBufferViews",
      "target": 34962
    },
    {
      "buffer": 0,
      "byteLength": 122184,
      "byteOffset": 84200,
      "byteStride": 12,
      "name": "floatBufferViews",
      "target": 34962
    },
    {
      "buffer": 0,
      "byteLength": 54304,
      "byteOffset": 206384,
      "byteStride": 16,
      "name": "floatBufferViews",
      "target": 34962
    }
  ],
  "buffers": [
    {
      "byteLength": 260688,
      "uri": "scene.bin"
    }
  ],
  "images": [
    {
      "uri": "textures/mBody_baseColor.png"
    },
    {
      "uri": "textures/mBody_metallicRoughness.png"
    },
    {
      "uri": "textures/mBody_normal.png"
    }
  ],
  "materials": [
    {
      "doubleSided": true,
      "name": "mBody",
      "normalTexture": {
        "index": 2
      },
      "occlusionTexture": {
        "index": 1
      },
      "pbrMetallicRoughness": {
        "baseColorTexture": {
          "index": 0
        },
        "metallicRoughnessTexture": {
          "index": 1
        }
      }
    },
    {
      "doubleSided": true,
      "name": "mBody_0",
      "normalTexture": {
        "index": 2
      },
      "occlusionTexture": {
        "index": 1
      },
      "pbrMetallicRoughness": {
        "baseColorTexture": {
          "index": 0
        },
        "metallicRoughnessTexture": {
          "index": 1
        }
      }
    }
  ],
  "meshes": [
    {
      "name": "Object_0",
      "primitives": [
        {
          "attributes": {
            "COLOR_0": 3,
            "NORMAL": 1,
            "POSITION": 0,
            "TANGENT": 2,
            "TEXCOORD_0": 4
          },
          "indices": 5,
          "material": 0,
          "mode": 4
        }
      ]
    },
    {
      "name": "Object_1",
      "primitives": [
        {
          "attributes": {
            "COLOR_0": 9,
            "NORMAL": 7,
            "POSITION": 6,
            "TANGENT": 8,
            "TEXCOORD_0": 10
          },
          "indices": 11,
          "material": 1,
          "mode": 4
        }
      ]
    },
    {
      "name": "Object_2",
      "primitives": [
        {
          "attributes": {
            "COLOR_0": 15,
            "NORMAL": 13,
            "POSITION": 12,
            "TANGENT": 14,
            "TEXCOORD_0": 16
          },
          "indices": 17,
          "material": 1,
          "mode": 4
        }
      ]
    },
    {
      "name": "Object_3",
      "primitives": [
        {
          "attributes": {
            "COLOR_0": 21,
            "NORMAL": 19,
            "POSITION": 18,
            "TANGENT": 20,
            "TEXCOORD_0": 22
          },
          "indices": 23,
          "material": 0,
          "mode": 4
        }
      ]
    }
  ],
  "nodes": [
    {
      "children": [
        1
      ],
      "matrix": [
        1.0,
        0.0,
        0.0,
        0.0,
        0.0,
        2.220446049250313e-16,
        -1.0,
        0.0,
        0.0,
        1.0,
        2.220446049250313e-16,
        0.0,
        0.0,
        0.0,
        0.0,
        1.0
      ],
      "name": "Sketchfab_model"
    },
    {
      "children": [
        2,
        7
      ],
      "name": "Collada visual scene group"
    },
    {
      "children": [
        3,
        4,
        5,
        6
      ],
      "name": "Object_2"
    },
    {
      "mesh": 0,
      "name": "Object_3"
    },
    {
      "mesh": 1,
      "name": "Object_4"
    },
    {
      "mesh": 2,
      "name": "Object_5"
    },
    {
      "mesh": 3,
      "name": "Object_6"
    },
    {
      "children": [
        8
      ],
      "name": "EnvironmentAmbientLight"
    },
    {
      "name": "EnvironmentAmbientLight"
    }
  ],
  "samplers": [
    {
      "magFilter": 9729,
      "minFilter": 9987,
      "wrapS": 10497,
      "wrapT": 10497
    }
  ],
  "scene": 0,
  "scenes": [
    {
      "name": "Sketchfab_Scene",
      "nodes": [
        0
      ]
    }
  ],
  "textures": [
    {
      "sampler": 0,
      "source": 0
    },
    {
      "sampler": 0,
      "source": 1
    },
    {
      "sampler": 0,
      "source": 2
    }
  ]
}
